<?xml version="1.0" encoding="UTF-8"?> <svg xmlns="http://www.w3.org/2000/svg" xmlns:xlink="http://www.w3.org/1999/xlink" width="75.68mm" height="19.4mm" viewBox="0 0 214.53 55"><defs><style> .cls-1 { fill: #fff; } .cls-2 { fill: #103b60; } .cls-3 { fill: url(#New_Gradient_Swatch_1); } .cls-4 { fill: url(#New_Gradient_Swatch_2); } .cls-5 { fill: url(#New_Gradient_Swatch_3); } </style><radialGradient id="New_Gradient_Swatch_3" data-name="New Gradient Swatch 3" cx="29.43" cy="16.89" fx="29.43" fy="16.89" r="17.15" gradientTransform="matrix(1, 0, 0, 1, 0, 0)" gradientUnits="userSpaceOnUse"><stop offset="0" stop-color="#c9d74f"></stop><stop offset=".5" stop-color="#98c01e"></stop><stop offset="1" stop-color="#749f28"></stop></radialGradient><radialGradient id="New_Gradient_Swatch_2" data-name="New Gradient Swatch 2" cx="23.06" cy="36.72" fx="23.06" fy="36.72" r="20.49" gradientTransform="matrix(1, 0, 0, 1, 0, 0)" gradientUnits="userSpaceOnUse"><stop offset="0" stop-color="#6ec6d5"></stop><stop offset=".5" stop-color="#02a4a7"></stop><stop offset="1" stop-color="#00918f"></stop></radialGradient><radialGradient id="New_Gradient_Swatch_1" data-name="New Gradient Swatch 1" cx="16.37" cy="24.36" fx="16.37" fy="24.36" r="19.64" gradientTransform="matrix(1, 0, 0, 1, 0, 0)" gradientUnits="userSpaceOnUse"><stop offset="0" stop-color="#416699"></stop><stop offset=".5" stop-color="#103b60"></stop><stop offset="1" stop-color="#0c2f4d"></stop></radialGradient></defs><g id="Calque_1" data-name="Calque 1"></g><g id="Calque_2" data-name="Calque 2"><g id="Layer_1" data-name="Layer 1"><g><g><g><path class="cls-5" d="M39.88,6.65C35.87,2.48,30.38,0,25.19,0c-1.09,0-2.14,.11-3.14,.33-5.35,1.51-9.15,6.68-9.9,13.47-.71,6.49,1.6,14.67,8.37,18.32,.42,.23,.7,.38,1.9,.84,1.54,.54,2.94,.8,4.39,.81-.94-.47-1.72-1.23-2.18-2.19-.57-1.2-1.13-3.73,1.57-7.23,3.56-4.26,7.5-6.6,11.11-6.6,4.69,0,8.13,3.89,8.77,9.91,.12,1.17,.18,2.84-.08,4.87,.42-1.84,.73-3.9,.81-6.17,.36-9.98-3.57-16.23-6.93-19.72Z"></path><path class="cls-4" d="M43.02,21.16c-1.45-1.78-3.41-2.72-5.68-2.72-.75,0-1.55,.11-2.35,.31-2.62,.78-4.9,2.28-7.18,4.75,.4-.15,.86-.25,1.36-.26h.09c1.68,0,2.95,.87,3.69,2.52,1.96,4.39-.57,11.63-4.16,15.64-3.25,3.62-8.47,5.86-13.63,5.86-5.71,0-11.91-2.79-14.59-10.17,.5,2.49,1.42,5.21,3.17,7.94,4.1,6.42,10.2,9.96,17.16,9.96,5.3,0,10.68-2.04,15.13-5.74,4.61-3.83,7.81-9.15,9.01-14.98,1.11-5.4,.38-10.18-2.02-13.12Z"></path><path class="cls-3" d="M31.94,32.67c-1.16,1.2-2.88,1.83-4.97,1.83-1.59,0-3.34-.36-5.2-1.08-.49-.21-1.11-.47-1.56-.72-4.93-2.66-9.8-9.01-8.68-18.83,.58-5.09,2.73-9.37,5.82-11.94C9.61,5.89,2.07,15.57,.31,26.55c-.39,2.43-.43,4.91-.03,7.34,.49,2.95,1.73,6.59,5.26,9.47,2.75,2.25,6.07,3.44,9.61,3.44,4.72,0,9.41-2.06,12.86-5.66,2.58-2.69,4.21-6,4.74-9.55-.22,.4-.5,.76-.81,1.08Z"></path></g><g><path class="cls-1" d="M4.51,31.58c.78-.84,1.81-1.97,2.57-2.83,.69,.49,1.62,1.14,2.31,1.64-.25-1.03-.59-2.39-.84-3.42,.67-.87,1.55-2.04,2.19-2.94-.84,.29-1.75,.56-2.73,.82-.27-1.04-.63-2.44-.91-3.48-.29,1.18-.67,2.76-.97,3.94-1.06,.24-2.18,.46-3.36,.66,.83,.52,1.93,1.21,2.76,1.74-.3,1.16-.71,2.71-1.01,3.87Z"></path><path class="cls-1" d="M13.23,37.68c.59,.38,1.37,.88,1.95,1.27-.21-.76-.5-1.77-.72-2.53,.57-.62,1.32-1.46,1.87-2.1-.73,.19-1.51,.36-2.33,.53-.23-.77-.53-1.81-.76-2.58-.24,.86-.56,2.01-.81,2.87-.83,.12-1.94,.28-2.77,.38,.68,.41,1.58,.95,2.26,1.35-.25,.84-.58,1.97-.83,2.81,.65-.6,1.5-1.39,2.13-2.01Z"></path><path class="cls-1" d="M22.29,38.22c-.15-.57-.34-1.33-.49-1.9-.16,.65-.37,1.51-.53,2.15-.55,.11-1.28,.26-1.83,.35,.45,.28,1.05,.66,1.5,.95-.17,.63-.38,1.48-.55,2.11,.42-.46,.99-1.07,1.4-1.54,.38,.27,.88,.62,1.26,.9-.14-.56-.32-1.3-.46-1.86,.36-.48,.85-1.11,1.19-1.6-.46,.16-.96,.31-1.49,.45Z"></path></g></g><g><g><path class="cls-2" d="M67.83,19.36c-1.13-.68-2.4-1.03-3.83-1.03-1.2,0-2.3,.26-3.29,.77-.99,.52-1.81,1.2-2.45,2.04V13.1c0-.38-.11-.67-.32-.89-.22-.22-.5-.32-.86-.32s-.65,.11-.87,.32c-.23,.22-.34,.51-.34,.89v13.14c.02,1.46,.37,2.78,1.06,3.95,.68,1.17,1.61,2.1,2.77,2.79,1.16,.69,2.48,1.03,3.94,1.03s2.84-.34,4.01-1.03c1.17-.68,2.1-1.62,2.79-2.8,.68-1.18,1.03-2.52,1.03-4.02s-.32-2.81-.97-4c-.65-1.18-1.53-2.11-2.66-2.8Zm.58,9.71c-.48,.85-1.13,1.53-1.96,2.03-.83,.5-1.76,.75-2.81,.75s-1.94-.25-2.77-.75c-.84-.5-1.49-1.17-1.96-2.03-.47-.85-.7-1.82-.7-2.91s.23-2.04,.7-2.9c.47-.86,1.12-1.54,1.96-2.03,.83-.49,1.76-.73,2.77-.73s1.99,.24,2.81,.73c.83,.49,1.48,1.16,1.96,2.03,.48,.86,.72,1.83,.72,2.9s-.24,2.06-.72,2.91Z"></path><path class="cls-2" d="M76.09,12.4c-.45,0-.84,.15-1.17,.46-.33,.31-.49,.7-.49,1.17s.16,.86,.48,1.18c.32,.32,.7,.48,1.15,.48s.84-.16,1.17-.48c.33-.32,.49-.71,.49-1.18s-.16-.86-.49-1.17c-.33-.31-.71-.46-1.14-.46Z"></path><path class="cls-2" d="M76.09,18.48c-.36,0-.65,.11-.87,.32-.22,.22-.34,.51-.34,.89v12.97c0,.36,.11,.65,.34,.87s.52,.34,.87,.34,.64-.11,.86-.34c.22-.22,.32-.52,.32-.87v-12.97c0-.38-.11-.67-.32-.89s-.5-.32-.86-.32Z"></path><path class="cls-2" d="M92.51,19.35c-1.16-.68-2.5-1.01-4-1.01s-2.87,.34-4.04,1.01c-1.17,.68-2.1,1.6-2.77,2.79-.68,1.18-1.01,2.53-1.01,4.05s.34,2.84,1.01,4.02c.68,1.18,1.6,2.11,2.77,2.79,1.17,.68,2.52,1.01,4.04,1.01s2.84-.34,4.01-1.01c1.17-.68,2.1-1.6,2.77-2.79,.68-1.18,1.01-2.52,1.01-4.02-.02-1.52-.37-2.87-1.04-4.05-.68-1.18-1.59-2.11-2.76-2.79Zm.75,9.75c-.46,.85-1.1,1.52-1.93,2.01-.83,.49-1.76,.73-2.81,.73s-1.99-.24-2.81-.73c-.83-.49-1.48-1.16-1.96-2.01-.48-.85-.72-1.82-.72-2.91s.24-2.06,.72-2.93c.48-.86,1.13-1.54,1.96-2.03,.83-.49,1.76-.73,2.81-.73s1.99,.24,2.81,.73c.83,.49,1.47,1.16,1.93,2.03,.46,.86,.69,1.84,.69,2.93s-.23,2.06-.69,2.91Z"></path><path class="cls-2" d="M113.09,11.89c-.36,0-.65,.11-.87,.32-.23,.22-.34,.51-.34,.89v8.05c-.64-.84-1.45-1.52-2.43-2.04-.98-.52-2.08-.77-3.28-.77-1.43,0-2.7,.34-3.83,1.03-1.13,.69-2.02,1.62-2.67,2.8-.66,1.18-.98,2.51-.98,4s.34,2.84,1.03,4.02c.68,1.18,1.62,2.12,2.8,2.8,1.18,.69,2.51,1.03,4,1.03s2.78-.34,3.94-1.03c1.16-.68,2.09-1.61,2.77-2.79,.68-1.17,1.05-2.49,1.08-3.95V13.1c0-.38-.11-.67-.34-.89-.23-.22-.52-.32-.87-.32Zm-1.86,17.18c-.47,.85-1.12,1.53-1.94,2.03-.83,.5-1.75,.75-2.79,.75s-1.96-.25-2.79-.75c-.83-.5-1.48-1.17-1.97-2.03-.49-.85-.73-1.82-.73-2.91s.24-2.04,.73-2.9c.49-.86,1.14-1.54,1.97-2.03,.83-.49,1.75-.73,2.79-.73s1.96,.24,2.79,.73c.83,.49,1.47,1.16,1.94,2.03,.47,.86,.7,1.83,.7,2.9s-.23,2.06-.7,2.91Z"></path><path class="cls-2" d="M119.61,18.48c-.36,0-.65,.11-.87,.32-.22,.22-.34,.51-.34,.89v12.97c0,.36,.11,.65,.34,.87,.23,.23,.52,.34,.87,.34s.64-.11,.86-.34c.22-.22,.32-.52,.32-.87v-12.97c0-.38-.11-.67-.32-.89-.22-.22-.5-.32-.86-.32Z"></path><path class="cls-2" d="M119.61,12.4c-.45,0-.84,.15-1.17,.46-.33,.31-.49,.7-.49,1.17s.16,.86,.48,1.18c.32,.32,.7,.48,1.15,.48s.84-.16,1.17-.48c.33-.32,.49-.71,.49-1.18s-.16-.86-.49-1.17c-.33-.31-.71-.46-1.14-.46Z"></path><path class="cls-2" d="M137.19,18.59c-.28-.13-.57-.15-.87-.06-.3,.09-.52,.28-.65,.56l-5.17,11.34-5.24-11.34c-.15-.26-.36-.45-.63-.55-.27-.1-.55-.08-.83,.07-.3,.15-.5,.36-.6,.62-.1,.26-.09,.53,.04,.79l6.13,13.03c.26,.54,.64,.82,1.13,.82,.53,0,.91-.27,1.15-.82l6.11-13.03c.11-.26,.12-.53,.03-.8-.09-.27-.29-.48-.59-.63Z"></path><path class="cls-2" d="M149.88,19.31c-1.05-.65-2.3-.97-3.74-.97s-2.75,.34-3.87,1.01c-1.12,.68-1.99,1.6-2.63,2.77-.64,1.17-.96,2.53-.96,4.07s.34,2.87,1.01,4.05c.68,1.18,1.6,2.11,2.79,2.77,1.18,.67,2.54,1,4.08,1,.88,0,1.8-.17,2.74-.51,.95-.34,1.74-.77,2.38-1.29,.24-.21,.36-.45,.35-.75s-.15-.56-.41-.8c-.21-.17-.46-.25-.75-.24-.29,0-.55,.11-.77,.3-.39,.34-.92,.62-1.59,.84-.67,.22-1.32,.34-1.96,.34-1.11,0-2.09-.25-2.94-.75-.85-.5-1.52-1.17-2.01-2.03-.37-.65-.6-1.36-.69-2.15h11.16c.32,0,.58-.1,.79-.3,.21-.2,.31-.45,.31-.77,0-1.46-.29-2.77-.86-3.91-.57-1.14-1.38-2.04-2.43-2.69Zm-6.53,1.89c.79-.5,1.72-.75,2.79-.75,1.01,0,1.88,.23,2.6,.7,.72,.47,1.28,1.12,1.67,1.94,.28,.59,.46,1.24,.54,1.94h-9.98c.1-.65,.28-1.25,.55-1.8,.43-.86,1.04-1.54,1.83-2.04Z"></path><path class="cls-2" d="M165.46,18.73c-.5-.28-1.22-.42-2.18-.42-1.11,0-2.11,.26-3.01,.79-.7,.41-1.28,.93-1.77,1.56v-1c0-.38-.1-.67-.31-.87s-.5-.31-.87-.31-.67,.1-.87,.31-.31,.5-.31,.87v13.03c0,.38,.1,.67,.31,.87,.21,.21,.5,.31,.87,.31s.67-.1,.87-.31c.21-.21,.31-.5,.31-.87v-8.36c0-.86,.25-1.6,.76-2.22,.51-.62,1.19-1.06,2.05-1.34,.86-.27,1.84-.33,2.93-.18,.3,.02,.57,.03,.8,.03s.44-.05,.62-.15c.18-.1,.3-.3,.35-.58,.13-.49-.05-.87-.55-1.15Z"></path><path class="cls-2" d="M177.38,26.02c-.82-.43-1.93-.77-3.33-1.01-1.01-.19-1.8-.4-2.36-.63-.56-.23-.95-.5-1.17-.8-.22-.3-.32-.66-.32-1.07,0-.6,.3-1.09,.91-1.46,.61-.38,1.39-.56,2.35-.56,.77,0,1.45,.11,2.05,.34,.6,.23,1.14,.59,1.6,1.1,.22,.24,.5,.39,.83,.45,.33,.06,.62,0,.89-.14,.26-.19,.41-.43,.45-.72,.04-.29-.06-.57-.28-.83-.56-.71-1.3-1.28-2.22-1.7-.92-.42-2.01-.63-3.26-.63-.99,0-1.92,.16-2.77,.48-.85,.32-1.54,.8-2.07,1.44-.53,.64-.79,1.44-.79,2.39,0,1.05,.44,1.95,1.31,2.7s2.26,1.29,4.15,1.6c1.46,.24,2.5,.58,3.11,1.01,.61,.43,.9,.97,.89,1.6-.02,.64-.33,1.18-.93,1.62-.6,.44-1.55,.66-2.84,.66-.88,0-1.69-.15-2.42-.44-.73-.29-1.29-.67-1.69-1.14-.22-.23-.49-.36-.8-.41-.31-.05-.61,.04-.91,.27-.26,.23-.41,.5-.45,.82-.04,.32,.06,.6,.28,.84,.66,.71,1.53,1.26,2.63,1.65,1.1,.38,2.24,.58,3.42,.58s2.28-.2,3.19-.59c.91-.39,1.61-.93,2.11-1.6,.5-.68,.75-1.44,.75-2.31,0-.71-.18-1.36-.53-1.96-.36-.59-.94-1.1-1.76-1.53Z"></path><path class="cls-2" d="M193.48,19.36c-1.17-.68-2.49-1.03-3.95-1.03s-2.81,.34-4,1.03c-1.18,.69-2.12,1.62-2.8,2.8-.69,1.18-1.03,2.52-1.03,4.02s.33,2.81,.98,4c.66,1.18,1.55,2.12,2.67,2.8,1.13,.69,2.4,1.03,3.83,1.03s2.59-.32,3.67-.97c.81-.48,1.49-1.1,2.04-1.84v1.49c0,.36,.11,.64,.34,.86,.23,.22,.52,.32,.87,.32,.34,0,.62-.11,.86-.32,.23-.22,.35-.5,.35-.86v-6.5c-.02-1.5-.37-2.84-1.06-4.02-.69-1.18-1.61-2.11-2.79-2.8Zm.77,9.72c-.47,.86-1.12,1.54-1.94,2.03-.83,.49-1.75,.73-2.79,.73s-1.96-.24-2.79-.73c-.83-.49-1.48-1.16-1.97-2.03-.49-.86-.73-1.83-.73-2.9s.24-2.06,.73-2.91c.49-.85,1.14-1.53,1.97-2.03,.83-.5,1.75-.75,2.79-.75s1.96,.25,2.79,.75c.83,.5,1.47,1.17,1.94,2.03,.47,.85,.7,1.82,.7,2.91s-.23,2.04-.7,2.9Z"></path><path class="cls-2" d="M214.18,24.88c-.24-.23-.52-.35-.86-.35h-4.19v-4.19c0-.34-.11-.62-.34-.86-.23-.23-.52-.35-.87-.35s-.62,.12-.86,.35c-.24,.23-.35,.52-.35,.86v4.19h-4.19c-.34,0-.62,.12-.84,.35-.23,.23-.34,.52-.34,.86,0,.36,.11,.65,.34,.87,.22,.23,.51,.34,.84,.34h4.19v4.22c0,.34,.12,.62,.35,.86,.23,.23,.52,.35,.86,.35,.36,0,.65-.12,.87-.35,.22-.23,.34-.52,.34-.86v-4.22h4.19c.34,0,.62-.11,.86-.34,.23-.22,.35-.52,.35-.87,0-.34-.12-.62-.35-.86Z"></path></g><g><path class="cls-2" d="M60.16,40.52c.1,0,.18-.03,.25-.09,.07-.06,.1-.14,.1-.23,0-.1-.03-.19-.1-.25-.07-.06-.15-.09-.25-.09h-3.8c-.1,0-.18,.03-.25,.1-.07,.07-.1,.15-.1,.25v5.69c0,.1,.03,.18,.1,.25,.07,.07,.15,.1,.25,.1h3.8c.1,0,.18-.03,.25-.09,.07-.06,.1-.15,.1-.25,0-.09-.03-.17-.1-.23-.07-.06-.15-.09-.25-.09h-3.44v-2.2h2.49c.1,0,.19-.03,.25-.1s.1-.15,.1-.25c0-.09-.03-.17-.1-.24s-.15-.1-.25-.1h-2.49v-2.17h3.44Z"></path><path class="cls-2" d="M64.95,41.77c-.1,0-.19,.03-.25,.09-.07,.06-.1,.15-.1,.25v2.38c0,.22-.06,.41-.18,.59-.12,.17-.28,.31-.49,.41s-.43,.15-.69,.15-.51-.05-.72-.16c-.21-.1-.38-.26-.5-.47-.12-.21-.18-.48-.18-.81v-2.09c0-.1-.03-.18-.1-.25s-.15-.1-.25-.1c-.1,0-.18,.03-.25,.1s-.1,.15-.1,.25v2.09c0,.45,.09,.83,.26,1.15s.41,.55,.72,.71c.3,.16,.64,.24,1.03,.24,.36,0,.68-.08,.97-.24,.19-.1,.34-.24,.48-.39v.23c0,.1,.03,.19,.1,.25s.15,.1,.25,.1,.19-.03,.25-.1,.1-.15,.1-.25v-3.78c0-.1-.03-.19-.1-.25-.07-.06-.15-.09-.25-.09Z"></path><path class="cls-2" d="M69.36,41.84c-.14-.08-.36-.12-.63-.12-.32,0-.61,.08-.88,.23-.21,.12-.37,.29-.52,.48v-.31c0-.11-.03-.19-.09-.25-.06-.06-.14-.09-.25-.09s-.19,.03-.25,.09-.09,.14-.09,.25v3.79c0,.11,.03,.19,.09,.25,.06,.06,.14,.09,.25,.09s.19-.03,.25-.09,.09-.14,.09-.25v-2.43c0-.25,.07-.47,.22-.65,.15-.18,.35-.31,.6-.39,.25-.08,.53-.1,.85-.05,.09,0,.16,0,.23,0s.13-.01,.18-.04c.05-.03,.09-.09,.1-.17,.04-.14-.02-.25-.16-.34Z"></path><path class="cls-2" d="M73.35,42.02c-.34-.2-.73-.29-1.16-.29s-.83,.1-1.17,.29c-.34,.2-.61,.47-.81,.81-.2,.34-.29,.74-.29,1.18s.1,.83,.29,1.17c.2,.34,.46,.61,.81,.81,.34,.2,.73,.29,1.17,.29s.83-.1,1.17-.29c.34-.2,.61-.47,.81-.81s.29-.73,.29-1.17c0-.44-.11-.83-.3-1.18-.2-.34-.46-.61-.8-.81Zm.22,2.83c-.13,.25-.32,.44-.56,.58-.24,.14-.51,.21-.82,.21s-.58-.07-.82-.21c-.24-.14-.43-.34-.57-.58s-.21-.53-.21-.85,.07-.6,.21-.85,.33-.45,.57-.59,.51-.21,.82-.21,.58,.07,.82,.21,.43,.34,.56,.59,.2,.53,.2,.85-.07,.6-.2,.85Z"></path><path class="cls-2" d="M78.9,42.03c-.34-.2-.73-.3-1.17-.3s-.81,.1-1.15,.3c-.34,.2-.61,.47-.81,.81-.2,.34-.3,.72-.31,1.15v3.82c0,.1,.03,.19,.1,.25s.15,.1,.25,.1,.19-.03,.25-.1c.06-.07,.09-.15,.09-.25v-2.34c.19,.25,.42,.44,.71,.59,.29,.15,.61,.22,.96,.22,.41,0,.79-.1,1.11-.3s.58-.47,.77-.81c.19-.34,.28-.73,.28-1.16s-.1-.83-.3-1.17c-.2-.34-.47-.61-.81-.81Zm.22,2.83c-.14,.25-.33,.45-.57,.59-.24,.14-.51,.21-.82,.21s-.56-.07-.81-.21c-.24-.14-.43-.34-.57-.59-.14-.25-.2-.53-.2-.84s.07-.6,.2-.85c.14-.25,.33-.44,.57-.59,.24-.14,.51-.22,.81-.22s.58,.07,.82,.22c.24,.14,.43,.34,.57,.59,.14,.25,.21,.53,.21,.85s-.07,.59-.21,.84Z"></path><path class="cls-2" d="M84.13,42.01c-.31-.19-.67-.28-1.09-.28s-.8,.1-1.12,.29c-.32,.2-.58,.47-.77,.81-.19,.34-.28,.73-.28,1.18s.1,.83,.29,1.18c.2,.34,.47,.61,.81,.81,.34,.19,.74,.29,1.19,.29,.26,0,.52-.05,.8-.15,.28-.1,.51-.22,.69-.38,.07-.06,.1-.13,.1-.22,0-.08-.04-.16-.12-.23-.06-.05-.13-.07-.22-.07-.08,0-.16,.03-.22,.09-.11,.1-.27,.18-.46,.25-.19,.07-.38,.1-.57,.1-.32,0-.61-.07-.86-.22-.25-.14-.44-.34-.58-.59-.11-.19-.16-.4-.19-.63h3.23c.09,0,.17-.03,.23-.09s.09-.13,.09-.22c0-.43-.08-.8-.25-1.14-.17-.33-.4-.59-.71-.78Zm-1.9,.55c.23-.14,.5-.22,.81-.22,.29,0,.55,.07,.76,.2,.21,.14,.37,.32,.49,.56,.08,.17,.12,.36,.15,.56h-2.89c.03-.19,.07-.37,.15-.52,.13-.25,.3-.45,.53-.59Z"></path><path class="cls-2" d="M89.26,42.03c-.34-.2-.72-.3-1.15-.3s-.82,.1-1.16,.3-.61,.47-.81,.81c-.2,.34-.3,.73-.3,1.17s.1,.82,.29,1.16c.19,.34,.45,.62,.78,.81s.7,.3,1.11,.3,.75-.09,1.07-.28c.24-.14,.43-.34,.59-.56v.46c0,.1,.03,.19,.1,.25s.15,.09,.25,.09c.1,0,.18-.03,.25-.09,.07-.06,.1-.15,.1-.25v-1.89c0-.44-.11-.83-.31-1.17-.2-.34-.47-.61-.81-.81Zm.22,2.83c-.14,.25-.32,.45-.56,.59-.24,.14-.51,.21-.81,.21s-.57-.07-.81-.21c-.24-.14-.43-.34-.57-.59s-.21-.53-.21-.84,.07-.6,.21-.85c.14-.25,.33-.44,.57-.59,.24-.14,.51-.22,.81-.22s.57,.07,.81,.22c.24,.14,.43,.34,.56,.59,.14,.25,.2,.53,.2,.85s-.07,.59-.2,.84Z"></path><path class="cls-2" d="M94.75,41.96c-.3-.16-.65-.24-1.03-.24-.35,0-.68,.08-.97,.24-.19,.11-.35,.25-.49,.4v-.24c0-.11-.03-.19-.09-.26-.06-.06-.15-.09-.25-.09s-.19,.03-.25,.09c-.07,.06-.1,.15-.1,.26v3.78c0,.1,.03,.19,.1,.25s.15,.09,.25,.09,.19-.03,.25-.09c.06-.06,.09-.15,.09-.25v-2.38c0-.22,.06-.42,.18-.59,.12-.17,.28-.31,.49-.4s.44-.15,.69-.15c.27,0,.51,.05,.72,.16s.38,.26,.5,.47c.13,.21,.19,.48,.19,.81v2.09c0,.1,.03,.18,.1,.25,.07,.07,.15,.1,.25,.1,.1,0,.18-.03,.25-.1s.1-.15,.1-.25v-2.09c0-.45-.09-.83-.26-1.15s-.41-.55-.72-.71Z"></path><path class="cls-2" d="M102.56,42.78c.26-.13,.46-.3,.61-.52,.15-.22,.23-.48,.23-.76,0-.32-.08-.61-.23-.85-.16-.25-.37-.44-.64-.58s-.58-.21-.92-.21h-1.98c-.1,0-.18,.03-.25,.1-.07,.07-.1,.15-.1,.25v5.69c0,.1,.04,.19,.11,.25,.07,.07,.16,.1,.27,.1h2.09c.39,0,.74-.08,1.04-.25s.54-.39,.71-.67,.26-.61,.26-.99c0-.41-.11-.75-.33-1.02-.22-.26-.51-.44-.88-.54Zm-2.57-2.26h1.62c.32,0,.59,.08,.79,.25s.31,.41,.31,.73-.1,.57-.31,.74-.47,.26-.79,.26h-1.62v-1.98Zm2.92,4.48c-.11,.18-.27,.32-.47,.42-.2,.1-.43,.15-.69,.15h-1.77v-2.4h1.77c.26,0,.49,.05,.69,.14,.2,.1,.35,.23,.47,.4,.11,.17,.17,.38,.17,.62,0,.26-.06,.48-.17,.67Z"></path><path class="cls-2" d="M105.26,41.77c-.1,0-.19,.03-.25,.09-.07,.06-.1,.15-.1,.26v3.77c0,.1,.03,.19,.1,.25,.07,.07,.15,.1,.25,.1s.19-.03,.25-.1,.09-.15,.09-.25v-3.77c0-.11-.03-.19-.09-.26-.06-.06-.15-.09-.25-.09Z"></path><path class="cls-2" d="M105.26,40c-.13,0-.24,.05-.34,.14-.1,.09-.14,.2-.14,.34s.05,.25,.14,.34c.09,.09,.2,.14,.34,.14s.24-.05,.34-.14c.1-.09,.14-.21,.14-.34s-.05-.25-.14-.34c-.1-.09-.21-.14-.33-.14Z"></path><path class="cls-2" d="M110.18,42.02c-.34-.2-.73-.29-1.16-.29s-.83,.1-1.17,.29c-.34,.2-.61,.47-.81,.81-.2,.34-.29,.74-.29,1.18s.1,.83,.29,1.17c.2,.34,.46,.61,.81,.81,.34,.2,.73,.29,1.17,.29s.83-.1,1.17-.29c.34-.2,.61-.47,.81-.81s.29-.73,.29-1.17c0-.44-.11-.83-.3-1.18s-.46-.61-.8-.81Zm.22,2.83c-.13,.25-.32,.44-.56,.58-.24,.14-.51,.21-.82,.21s-.58-.07-.82-.21c-.24-.14-.43-.34-.57-.58s-.21-.53-.21-.85,.07-.6,.21-.85,.33-.45,.57-.59,.51-.21,.82-.21,.58,.07,.82,.21c.24,.14,.43,.34,.56,.59s.2,.53,.2,.85-.07,.6-.2,.85Z"></path><path class="cls-2" d="M116.31,39.85c-.1,0-.19,.03-.25,.09-.07,.06-.1,.15-.1,.26v2.34c-.19-.25-.42-.44-.71-.59s-.6-.22-.95-.22c-.41,0-.79,.1-1.11,.3s-.59,.47-.78,.81c-.19,.34-.29,.73-.29,1.16s.1,.83,.3,1.17c.2,.34,.47,.62,.81,.81,.34,.2,.73,.3,1.16,.3s.81-.1,1.15-.3,.61-.47,.81-.81c.2-.34,.3-.72,.32-1.15v-3.82c0-.11-.03-.19-.1-.26-.07-.06-.15-.09-.25-.09Zm-.54,4.99c-.14,.25-.32,.44-.56,.59-.24,.14-.51,.22-.81,.22s-.57-.07-.81-.22c-.24-.14-.43-.34-.57-.59-.14-.25-.21-.53-.21-.85s.07-.59,.21-.84,.33-.45,.57-.59c.24-.14,.51-.21,.81-.21s.57,.07,.81,.21c.24,.14,.43,.34,.56,.59,.14,.25,.2,.53,.2,.84s-.07,.6-.2,.85Z"></path><path class="cls-2" d="M118.35,41.77c-.1,0-.19,.03-.25,.09-.07,.06-.1,.15-.1,.26v3.77c0,.1,.03,.19,.1,.25s.15,.1,.25,.1,.19-.03,.25-.1,.09-.15,.09-.25v-3.77c0-.11-.03-.19-.09-.26-.06-.06-.15-.09-.25-.09Z"></path><path class="cls-2" d="M118.35,40c-.13,0-.24,.05-.34,.14-.1,.09-.14,.2-.14,.34s.05,.25,.14,.34c.09,.09,.2,.14,.34,.14s.24-.05,.34-.14c.1-.09,.14-.21,.14-.34s-.05-.25-.14-.34c-.1-.09-.21-.14-.33-.14Z"></path><path class="cls-2" d="M123.6,41.8c-.08-.04-.17-.04-.25-.02-.09,.03-.15,.08-.19,.16l-1.5,3.3-1.52-3.3c-.04-.08-.11-.13-.18-.16-.08-.03-.16-.02-.24,.02-.09,.04-.15,.1-.18,.18s-.03,.15,.01,.23l1.78,3.79c.08,.16,.19,.24,.33,.24,.15,0,.26-.08,.33-.24l1.78-3.79c.03-.08,.04-.15,0-.23-.03-.08-.09-.14-.17-.18Z"></path><path class="cls-2" d="M127.44,42.01c-.31-.19-.67-.28-1.09-.28s-.8,.1-1.12,.29c-.32,.2-.58,.47-.77,.81-.19,.34-.28,.73-.28,1.18s.1,.83,.29,1.18c.2,.34,.47,.61,.81,.81,.34,.19,.74,.29,1.19,.29,.26,0,.52-.05,.8-.15s.51-.22,.69-.38c.07-.06,.1-.13,.1-.22,0-.08-.04-.16-.12-.23-.06-.05-.13-.07-.22-.07-.09,0-.16,.03-.22,.09-.11,.1-.27,.18-.46,.25-.19,.07-.38,.1-.57,.1-.32,0-.61-.07-.86-.22-.25-.14-.44-.34-.58-.59-.11-.19-.16-.4-.19-.63h3.23c.09,0,.17-.03,.23-.09s.09-.13,.09-.22c0-.43-.08-.8-.25-1.14-.17-.33-.4-.59-.71-.78Zm-1.9,.55c.23-.14,.5-.22,.81-.22,.29,0,.55,.07,.76,.2,.21,.14,.37,.32,.49,.56,.08,.17,.12,.36,.15,.56h-2.89c.03-.19,.07-.37,.15-.52,.13-.25,.3-.45,.53-.59Z"></path><path class="cls-2" d="M132.1,41.84c-.14-.08-.36-.12-.63-.12-.32,0-.61,.08-.88,.23-.21,.12-.37,.29-.52,.47v-.31c0-.11-.03-.19-.09-.25-.06-.06-.14-.09-.25-.09s-.19,.03-.25,.09c-.06,.06-.09,.14-.09,.25v3.79c0,.11,.03,.19,.09,.25,.06,.06,.14,.09,.25,.09s.19-.03,.25-.09c.06-.06,.09-.14,.09-.25v-2.43c0-.25,.07-.47,.22-.65,.15-.18,.35-.31,.6-.39,.25-.08,.53-.1,.85-.05,.09,0,.16,0,.23,0s.13-.01,.18-.04c.05-.03,.09-.09,.1-.17,.04-.14-.02-.25-.16-.34Z"></path><path class="cls-2" d="M135.71,43.96c-.24-.13-.56-.22-.97-.29-.29-.05-.52-.12-.69-.18-.16-.07-.28-.15-.34-.23-.06-.09-.09-.19-.09-.31,0-.17,.09-.32,.27-.43,.18-.11,.4-.16,.68-.16,.22,0,.42,.03,.6,.1,.17,.07,.33,.17,.47,.32,.07,.07,.15,.11,.24,.13,.1,.02,.18,0,.26-.04,.08-.05,.12-.12,.13-.21s-.02-.16-.08-.24c-.16-.21-.38-.37-.65-.49s-.58-.18-.95-.18c-.29,0-.56,.05-.81,.14s-.45,.23-.6,.42c-.15,.19-.23,.42-.23,.7,0,.31,.13,.57,.38,.79,.25,.22,.66,.37,1.21,.47,.43,.07,.73,.17,.9,.29,.18,.13,.26,.28,.26,.47,0,.19-.1,.34-.27,.47s-.45,.19-.83,.19c-.26,0-.49-.04-.7-.13-.21-.08-.38-.19-.49-.33-.07-.07-.14-.1-.23-.12-.09-.01-.18,.01-.27,.08-.08,.07-.12,.14-.13,.24s.02,.17,.08,.25c.19,.21,.45,.37,.77,.48,.32,.11,.65,.17,.99,.17s.66-.06,.93-.17c.26-.11,.47-.27,.61-.47,.14-.2,.22-.42,.22-.67,0-.21-.05-.4-.16-.57-.1-.17-.27-.32-.51-.45Z"></path><path class="cls-2" d="M137.8,41.77c-.1,0-.19,.03-.25,.09-.07,.06-.1,.15-.1,.26v3.77c0,.1,.03,.19,.1,.25,.07,.07,.15,.1,.25,.1s.19-.03,.25-.1,.09-.15,.09-.25v-3.77c0-.11-.03-.19-.09-.26-.06-.06-.15-.09-.25-.09Z"></path><path class="cls-2" d="M137.8,40c-.13,0-.24,.05-.34,.14-.1,.09-.14,.2-.14,.34s.05,.25,.14,.34c.09,.09,.2,.14,.34,.14s.24-.05,.34-.14c.1-.09,.14-.21,.14-.34s-.05-.25-.14-.34c-.1-.09-.21-.14-.33-.14Z"></path><path class="cls-2" d="M141.51,45.55h-.24c-.23,0-.42-.08-.57-.25-.15-.17-.22-.38-.22-.63v-2.13h.85c.09,0,.17-.03,.23-.08,.06-.05,.09-.13,.09-.21s-.03-.16-.09-.22c-.06-.06-.14-.09-.23-.09h-.85v-1.24c0-.1-.03-.19-.1-.25-.07-.07-.15-.1-.25-.1-.1,0-.19,.03-.25,.1-.06,.07-.09,.15-.09,.25v1.24h-.48c-.09,0-.17,.03-.23,.09-.06,.06-.09,.13-.09,.22s.03,.16,.09,.21c.06,.05,.14,.08,.23,.08h.48v2.13c0,.3,.06,.57,.19,.81,.13,.24,.3,.43,.53,.56,.22,.14,.48,.2,.76,.2h.16c.11,0,.21-.03,.28-.09s.11-.15,.11-.25-.03-.19-.09-.25-.14-.1-.23-.1Z"></path><path class="cls-2" d="M146.37,41.8c-.2-.09-.35-.03-.43,.16l-1.45,3.23-1.57-3.24c-.04-.09-.1-.15-.18-.18-.08-.03-.16-.02-.25,.02-.09,.04-.15,.1-.18,.18-.03,.08-.03,.16,.02,.25l1.83,3.69-.81,1.8c-.09,.2-.04,.34,.16,.43,.07,.03,.12,.04,.16,.04,.12,0,.21-.07,.27-.21l2.6-5.76c.09-.2,.03-.34-.17-.43Z"></path><path class="cls-2" d="M152.58,40.12c-.31-.18-.67-.27-1.08-.27h-1.64c-.1,0-.18,.03-.25,.1-.07,.07-.1,.15-.1,.25v5.69c0,.1,.03,.18,.1,.25,.07,.07,.15,.1,.25,.1,.1,0,.19-.03,.26-.1,.07-.07,.1-.15,.1-.25v-1.89h1.28c.41,0,.77-.09,1.08-.27,.31-.18,.55-.42,.73-.73,.18-.31,.27-.66,.27-1.06s-.09-.78-.27-1.09c-.18-.31-.42-.56-.73-.74Zm.13,2.54c-.12,.21-.28,.37-.49,.49-.21,.12-.45,.18-.72,.18h-1.28v-2.81h1.28c.27,0,.51,.06,.72,.18,.21,.12,.37,.29,.49,.5,.12,.21,.18,.46,.18,.74,0,.27-.06,.5-.18,.71Z"></path><path class="cls-2" d="M157.48,42.03c-.34-.2-.72-.3-1.15-.3s-.82,.1-1.16,.3c-.34,.2-.62,.47-.81,.81-.2,.34-.3,.73-.3,1.17s.1,.82,.29,1.16c.19,.34,.45,.62,.78,.81s.7,.3,1.11,.3,.75-.09,1.07-.28c.24-.14,.43-.34,.59-.56v.46c0,.1,.03,.19,.1,.25,.07,.06,.15,.09,.25,.09s.18-.03,.25-.09c.07-.06,.1-.15,.1-.25v-1.89c0-.44-.11-.83-.31-1.17-.2-.34-.47-.61-.81-.81Zm.22,2.83c-.14,.25-.32,.45-.56,.59-.24,.14-.51,.21-.81,.21s-.57-.07-.81-.21c-.24-.14-.43-.34-.57-.59s-.21-.53-.21-.84,.07-.6,.21-.85c.14-.25,.33-.44,.57-.59,.24-.14,.51-.22,.81-.22s.57,.07,.81,.22c.24,.14,.43,.34,.56,.59,.14,.25,.2,.53,.2,.85s-.07,.59-.2,.84Z"></path><path class="cls-2" d="M162.5,41.84c-.14-.08-.36-.12-.63-.12-.32,0-.61,.08-.87,.23-.21,.12-.37,.29-.52,.48v-.31c0-.11-.03-.19-.09-.25-.06-.06-.14-.09-.25-.09s-.19,.03-.25,.09c-.06,.06-.09,.14-.09,.25v3.79c0,.11,.03,.19,.09,.25,.06,.06,.14,.09,.25,.09s.19-.03,.25-.09c.06-.06,.09-.14,.09-.25v-2.43c0-.25,.07-.47,.22-.65,.15-.18,.35-.31,.6-.39,.25-.08,.53-.1,.85-.05,.09,0,.16,0,.23,0s.13-.01,.18-.04,.09-.09,.1-.17c.04-.14-.02-.25-.16-.34Z"></path><path class="cls-2" d="M165.71,45.55h-.24c-.23,0-.42-.08-.57-.25-.15-.17-.22-.38-.22-.63v-2.13h.85c.09,0,.17-.03,.23-.08,.06-.05,.09-.13,.09-.21s-.03-.16-.09-.22c-.06-.06-.14-.09-.23-.09h-.85v-1.24c0-.1-.03-.19-.1-.25-.07-.07-.15-.1-.25-.1-.1,0-.19,.03-.25,.1-.06,.07-.09,.15-.09,.25v1.24h-.48c-.09,0-.17,.03-.23,.09-.06,.06-.09,.13-.09,.22s.03,.16,.09,.21c.06,.05,.14,.08,.23,.08h.48v2.13c0,.3,.06,.57,.19,.81,.13,.24,.3,.43,.53,.56,.22,.14,.48,.2,.76,.2h.16c.11,0,.21-.03,.28-.09s.11-.15,.11-.25-.03-.19-.09-.25-.14-.1-.23-.1Z"></path><path class="cls-2" d="M170.06,41.96c-.3-.16-.65-.24-1.04-.24-.35,0-.68,.08-.97,.24-.19,.11-.35,.25-.49,.4v-.24c0-.11-.03-.19-.09-.26-.06-.06-.15-.09-.25-.09s-.19,.03-.25,.09c-.07,.06-.1,.15-.1,.26v3.78c0,.1,.03,.19,.1,.25,.07,.06,.15,.09,.25,.09s.19-.03,.25-.09,.09-.15,.09-.25v-2.38c0-.22,.06-.42,.18-.59,.12-.17,.28-.31,.49-.4,.21-.1,.44-.15,.69-.15,.27,0,.51,.05,.72,.16,.21,.1,.38,.26,.5,.47,.13,.21,.19,.48,.19,.81v2.09c0,.1,.03,.18,.1,.25,.07,.07,.15,.1,.25,.1,.1,0,.18-.03,.25-.1,.07-.07,.1-.15,.1-.25v-2.09c0-.45-.09-.83-.26-1.15-.18-.31-.41-.55-.72-.71Z"></path><path class="cls-2" d="M175.32,42.01c-.31-.19-.67-.28-1.09-.28s-.8,.1-1.12,.29c-.32,.2-.58,.47-.77,.81-.19,.34-.28,.73-.28,1.18s.1,.83,.29,1.18c.2,.34,.47,.61,.81,.81,.34,.19,.74,.29,1.19,.29,.26,0,.52-.05,.8-.15s.51-.22,.69-.38c.07-.06,.11-.13,.1-.22,0-.08-.04-.16-.12-.23-.06-.05-.13-.07-.22-.07-.09,0-.16,.03-.22,.09-.12,.1-.27,.18-.46,.25s-.38,.1-.57,.1c-.32,0-.61-.07-.86-.22s-.44-.34-.58-.59c-.11-.19-.16-.4-.19-.63h3.23c.09,0,.17-.03,.23-.09s.09-.13,.09-.22c0-.43-.08-.8-.25-1.14-.17-.33-.4-.59-.71-.78Zm-1.9,.55c.23-.14,.5-.22,.81-.22,.29,0,.55,.07,.76,.2,.21,.14,.37,.32,.49,.56,.08,.17,.12,.36,.15,.56h-2.89c.03-.19,.07-.37,.15-.52,.13-.25,.3-.45,.53-.59Z"></path><path class="cls-2" d="M179.98,41.84c-.14-.08-.36-.12-.63-.12-.32,0-.61,.08-.87,.23-.21,.12-.37,.29-.52,.48v-.31c0-.11-.03-.19-.09-.25-.06-.06-.14-.09-.25-.09s-.19,.03-.25,.09c-.06,.06-.09,.14-.09,.25v3.79c0,.11,.03,.19,.09,.25,.06,.06,.14,.09,.25,.09s.19-.03,.25-.09c.06-.06,.09-.14,.09-.25v-2.43c0-.25,.07-.47,.22-.65,.15-.18,.35-.31,.6-.39,.25-.08,.53-.1,.85-.05,.09,0,.16,0,.23,0s.13-.01,.18-.04,.09-.09,.1-.17c.04-.14-.02-.25-.16-.34Z"></path><path class="cls-2" d="M183.59,43.96c-.24-.13-.56-.22-.97-.29-.29-.05-.52-.12-.69-.18-.16-.07-.28-.15-.34-.23-.06-.09-.09-.19-.09-.31,0-.17,.09-.32,.27-.43,.18-.11,.4-.16,.68-.16,.22,0,.42,.03,.6,.1,.17,.07,.33,.17,.47,.32,.07,.07,.15,.11,.24,.13,.1,.02,.18,0,.26-.04,.08-.05,.12-.12,.13-.21s-.02-.16-.08-.24c-.16-.21-.38-.37-.65-.49s-.58-.18-.95-.18c-.29,0-.56,.05-.81,.14s-.45,.23-.6,.42-.23,.42-.23,.7c0,.31,.13,.57,.38,.79,.25,.22,.66,.37,1.21,.47,.43,.07,.73,.17,.9,.29,.18,.13,.26,.28,.26,.47,0,.19-.1,.34-.27,.47s-.45,.19-.83,.19c-.26,0-.49-.04-.7-.13-.21-.08-.38-.19-.49-.33-.07-.07-.14-.1-.23-.12-.09-.01-.18,.01-.27,.08-.08,.07-.12,.14-.13,.24s.02,.17,.08,.25c.19,.21,.45,.37,.77,.48,.32,.11,.65,.17,.99,.17s.66-.06,.93-.17c.26-.11,.47-.27,.61-.47,.14-.2,.22-.42,.22-.67,0-.21-.05-.4-.16-.57-.1-.17-.27-.32-.51-.45Z"></path><path class="cls-2" d="M188.47,41.96c-.3-.16-.65-.24-1.04-.24-.35,0-.68,.08-.97,.24-.19,.11-.35,.25-.49,.4v-2.15c0-.11-.03-.19-.09-.26s-.15-.09-.25-.09-.19,.03-.25,.09c-.07,.06-.1,.15-.1,.26v5.69c0,.1,.03,.19,.1,.25,.07,.06,.15,.09,.25,.09s.19-.03,.25-.09,.09-.15,.09-.25v-2.38c0-.22,.06-.42,.18-.59,.12-.17,.28-.31,.49-.4,.21-.1,.44-.15,.69-.15,.27,0,.51,.05,.72,.16,.21,.1,.38,.26,.5,.47,.13,.21,.19,.48,.19,.81v2.09c0,.1,.03,.18,.1,.25,.07,.07,.15,.1,.25,.1,.1,0,.18-.03,.25-.1,.07-.07,.1-.15,.1-.25v-2.09c0-.45-.09-.83-.26-1.15-.18-.31-.41-.55-.72-.71Z"></path><path class="cls-2" d="M191.12,41.77c-.1,0-.19,.03-.25,.09-.07,.06-.1,.15-.1,.26v3.77c0,.1,.03,.19,.1,.25,.07,.07,.15,.1,.25,.1s.19-.03,.25-.1,.09-.15,.09-.25v-3.77c0-.11-.03-.19-.09-.26-.06-.06-.15-.09-.25-.09Z"></path><path class="cls-2" d="M191.12,40c-.13,0-.24,.05-.34,.14-.1,.09-.14,.2-.14,.34s.05,.25,.14,.34c.09,.09,.2,.14,.34,.14s.24-.05,.34-.14c.1-.09,.14-.21,.14-.34s-.05-.25-.14-.34c-.1-.09-.21-.14-.33-.14Z"></path><path class="cls-2" d="M197.03,42.84c-.2-.34-.47-.61-.81-.81-.34-.2-.73-.3-1.17-.3s-.81,.1-1.15,.3-.61,.47-.81,.81c-.2,.34-.3,.72-.31,1.15v3.82c0,.1,.03,.19,.1,.25,.07,.07,.15,.1,.25,.1s.19-.03,.25-.1,.09-.15,.09-.25v-2.34c.19,.25,.42,.44,.71,.59,.29,.15,.61,.22,.96,.22,.41,0,.79-.1,1.11-.3s.58-.47,.77-.81c.19-.34,.28-.73,.28-1.16s-.1-.83-.3-1.17Zm-.59,2.01c-.14,.25-.33,.45-.57,.59-.24,.14-.51,.21-.82,.21s-.56-.07-.81-.21c-.24-.14-.43-.34-.57-.59-.14-.25-.2-.53-.2-.84s.07-.6,.2-.85c.14-.25,.33-.44,.57-.59,.24-.14,.51-.22,.81-.22s.58,.07,.82,.22c.24,.14,.43,.34,.57,.59,.14,.25,.21,.53,.21,.85s-.07,.59-.21,.84Z"></path></g></g></g></g></g></svg> 